<svg width="18" height="61" viewBox="0 0 26 89" fill="none" xmlns="http://www.w3.org/2000/svg">
<path d="M21.1928 73.8057C16.9343 77.7202 14.91 82.3445 13.3096 87.0461C12.5529 89.2716 9.24117 89.8346 7.76355 87.4757C7.30799 86.7473 7.2961 85.9334 7.02277 85.1703C5.24012 79.1104 2.70876 73.1626 0.018949 67.2522C0.0011712 67.2127 -0.00417028 67.1712 0.00323288 67.1303C0.010636 67.0894 0.0306175 67.0499 0.0619387 67.0145C0.09326 66.9791 0.135209 66.9485 0.185105 66.9246C0.235001 66.9007 0.291761 66.8842 0.35172 66.8759C0.455888 66.8607 0.564587 66.8689 0.661183 66.8992C0.75778 66.9296 0.836935 66.9805 0.886504 67.044C2.47108 68.9946 8.82918 75.6949 8.46077 80.3672C9.49866 67.2335 7.82297 55.9836 8.08443 43.8452C7.98143 29.2972 7.31327 14.7608 6.07994 0.235962C6.07441 0.178482 6.10235 0.121819 6.15782 0.07798C6.21329 0.0341415 6.29192 0.00657654 6.37705 0.00114441C6.45093 -0.00416565 6.52497 0.0101471 6.58341 0.0410461C6.64186 0.0719452 6.68012 0.116982 6.69002 0.16658C9.68882 14.6238 12.236 29.1638 12.8342 43.7571C13.365 56.6827 13.0362 66.7185 12.2043 77.9123C12.5133 73.7683 21.9138 70.4168 25.1424 69.2454C25.248 69.2069 25.37 69.1938 25.4881 69.2084C25.6063 69.2229 25.7135 69.2642 25.7921 69.3255C25.901 69.4129 25.9608 69.5235 25.9608 69.6377C25.9608 69.7519 25.901 69.8624 25.7921 69.9499C24.1916 71.2547 22.5912 72.5088 21.1928 73.8057Z" fill="#231F20"/>
<path d="M2.79983 53.8729C4.27257 45.5697 3.94563 37.1663 1.82927 28.9263C1.82559 28.8846 1.79744 28.8455 1.751 28.8177C1.70457 28.79 1.64367 28.7758 1.58168 28.7782C1.51969 28.7807 1.46171 28.7997 1.42048 28.8309C1.37925 28.8622 1.35815 28.9033 1.36182 28.945C0.821328 37.2585 1.14564 45.5873 2.33238 53.8703C2.33186 53.912 2.35597 53.9522 2.39943 53.982C2.44289 54.0118 2.50212 54.0287 2.56411 54.029C2.6261 54.0294 2.68577 54.0132 2.72998 53.9839C2.77418 53.9546 2.7993 53.9147 2.79983 53.8729Z" fill="#231F20"/>
<path d="M1.50487 26.9598C1.8395 26.4632 2.00867 25.9232 2.00046 25.3779C1.99224 24.8325 1.80685 24.295 1.45733 23.8031C1.43135 23.7656 1.38832 23.7346 1.33448 23.7147C1.28064 23.6948 1.2188 23.687 1.1579 23.6923C1.097 23.6977 1.04021 23.716 0.99576 23.7445C0.951307 23.773 0.92149 23.8104 0.910651 23.8511C0.72119 24.862 0.739859 25.8856 0.966117 26.8931C0.972347 26.9344 0.998352 26.9734 1.04022 27.0039C1.0821 27.0345 1.13759 27.0551 1.19833 27.0626C1.25907 27.0702 1.32178 27.0642 1.37706 27.0456C1.43234 27.0271 1.47719 26.997 1.50487 26.9598Z" fill="#231F20"/>
</svg>
