<svg width="107" height="107" viewBox="0 0 148 146" fill="none" xmlns="http://www.w3.org/2000/svg">
<path d="M97.8395 70.0664L93.5473 73.0167C92.8371 73.5147 92.1099 73.9893 91.383 74.4641L89.207 75.895C88.4366 76.3989 87.6733 76.9161 86.8974 77.4149C86.1194 77.9106 85.3462 78.4125 84.5845 78.927C83.5666 79.6114 82.5566 80.3078 81.5336 80.9847L78.4416 82.982C76.3935 84.3351 74.288 85.5984 72.1977 86.8873L70.626 87.848L69.0337 88.7746L65.8462 90.6246L65.0478 91.0849L64.2395 91.5277L62.6219 92.412L59.3812 94.1725L55.3352 96.2393C54.6593 96.5807 53.9883 96.932 53.3078 97.2645L51.2587 98.2474C49.89 98.8971 48.5309 99.5672 47.153 100.198L43.0055 102.061C37.451 104.489 31.8363 106.791 26.1275 108.844C25.2686 109.159 24.395 109.448 23.5195 109.722C22.6385 109.982 21.7523 110.217 20.8781 110.454C19.2018 110.905 18.0118 110.89 17.1884 110.62C15.9905 110.228 16.6886 109.128 18.9173 108.151C19.6229 107.842 20.372 107.55 21.1346 107.276C21.9002 107.01 22.672 106.742 23.4224 106.482C30.3622 104.189 37.1181 101.388 43.6342 98.1023C44.5321 97.6505 45.4483 97.1895 46.3584 96.7316C47.2637 96.2645 48.1725 95.8216 49.0774 95.4472C51.9822 94.2781 54.7739 92.8507 57.5715 91.437C58.9582 90.7069 60.3314 89.9513 61.7146 89.2156C62.4038 88.8435 63.1004 88.4849 63.7868 88.1088L65.8464 86.9826C66.8704 86.432 67.8918 85.8736 68.9105 85.3077C69.9234 84.7324 70.9215 84.1305 71.9263 83.539L74.9333 81.7516L77.9072 79.9139C84.9853 75.5639 91.8878 70.9298 98.5583 65.978C99.223 65.4833 99.8868 65.0076 100.549 64.5509C100.879 64.3204 101.217 64.1076 101.553 63.8965C101.883 63.6791 102.213 63.4665 102.541 63.2589C103.855 62.4296 105.157 61.6863 106.432 61.0397C107.607 60.4473 107.94 60.9687 106.901 62.0543C106.164 62.8203 105.4 63.5959 104.619 64.371C103.832 65.1396 103.055 65.9407 102.206 66.6485C100.81 67.8133 99.2925 68.9041 97.8212 70.0154L97.8395 70.0664Z" fill="black"/>
<path d="M107.791 58.6289C96.6714 63.7913 87.7491 64.77 75.4557 64.2902C97.4576 58.2128 112.31 49.1334 130.547 35.5605C119.38 50.8771 115.222 63.5973 110.777 81.9754C107.344 74.6154 107.112 66.8256 107.727 58.7562" fill="black"/>
<path d="M111.735 79.3771L111.902 79.841C111.961 79.9947 112.028 80.145 112.09 80.2971L112.468 81.2088L108.966 81.5412C110.217 76.7489 111.542 71.9577 113.078 67.2084C113.529 65.769 114.041 64.3409 114.53 62.9078L115.308 60.7707C115.558 60.0558 115.832 59.3491 116.104 58.6421C117.716 54.3578 119.618 50.1866 121.797 46.1566C123.991 42.1373 126.435 38.2572 129.116 34.5386L131.61 36.9535C128.813 39.054 126.011 41.1516 123.14 43.1718C121.716 44.1965 120.259 45.1802 118.809 46.1738C118.085 46.6719 117.341 47.1447 116.608 47.631C115.871 48.1126 115.14 48.6028 114.388 49.0643L112.163 50.4572C111.417 50.9164 110.658 51.3559 109.906 51.806L108.776 52.4771C108.397 52.6983 108.012 52.9081 107.63 53.1242L105.332 54.4107L102.999 55.6373C102.609 55.8397 102.223 56.0503 101.829 56.2458L100.645 56.8267C99.8533 57.21 99.0697 57.6095 98.2711 57.9789L95.8676 59.0718C95.071 59.4464 94.2527 59.7725 93.4424 60.1165L92.2246 60.6273C91.8192 60.7989 91.4132 60.9692 91.0006 61.123C89.3568 61.7541 87.7203 62.4059 86.0524 62.9701C82.7396 64.1671 79.3636 65.1665 75.9828 66.134L75.5256 62.3776C78.458 62.493 81.379 62.5369 84.2726 62.4171C87.1502 62.3113 90.016 62.0062 92.849 61.5041C95.7017 61.011 98.5222 60.3533 101.296 59.5343C101.952 59.3259 102.56 59.1575 103.123 59.0241C103.681 58.8751 104.194 58.7581 104.667 58.6761C104.903 58.6341 105.13 58.6026 105.346 58.5743C105.561 58.5423 105.766 58.518 105.961 58.5014C106.315 58.469 106.672 58.4631 107.027 58.4837C107.96 58.5433 108.16 58.9465 107.66 59.5732C107.291 59.9927 106.865 60.3595 106.394 60.6632C105.66 61.1361 104.891 61.5534 104.092 61.9114C101.604 63.0169 99.0023 63.8578 96.3322 64.4201C92.8799 65.1439 89.3739 65.5947 85.8474 65.7683C82.3454 65.9479 78.8613 65.9185 75.4005 65.8081C75.0351 65.7964 74.6855 65.6562 74.4146 65.4127C74.1437 65.1692 73.9692 64.8384 73.9226 64.4798C73.8759 64.1212 73.9602 63.7584 74.1602 63.4566C74.3603 63.1548 74.6629 62.9339 75.0137 62.8336L75.0377 62.8272C79.9942 61.4288 84.8543 59.7186 89.5882 57.707C89.9685 57.5541 90.3447 57.3862 90.7201 57.2135L91.8521 56.7007L92.9882 56.1887L93.5569 55.9339L94.1184 55.6651C94.8673 55.3083 95.616 54.9588 96.3621 54.6231C96.5489 54.5397 96.7353 54.4566 96.921 54.3737L97.4714 54.1144C97.8379 53.9437 98.2034 53.7776 98.5679 53.6161C103.233 51.5151 107.739 49.0887 112.054 46.3552C116.402 43.6431 120.622 40.7121 124.831 37.7702C126.441 36.6599 128.021 35.4966 129.618 34.3426L129.63 34.3335C129.926 34.12 130.289 34.0177 130.654 34.0452C131.02 34.0726 131.364 34.2279 131.625 34.4832C131.886 34.7385 132.047 35.0771 132.078 35.4382C132.11 35.7993 132.01 36.1593 131.798 36.4536C130.152 38.729 128.532 41.0307 127.062 43.422C126.3 44.6024 125.608 45.8216 124.897 47.0309C124.538 47.6334 124.221 48.2582 123.88 48.8702C123.545 49.4858 123.199 50.0954 122.891 50.724L121.948 52.5791C121.643 53.2019 121.356 53.8337 121.059 54.4606L120.617 55.4027L120.202 56.3579L119.379 58.2709C118.33 60.8436 117.357 63.4512 116.478 66.0972C114.719 71.3888 113.268 76.8019 111.887 82.2409L111.88 82.2664C111.823 82.4926 111.696 82.6952 111.516 82.8461C111.336 82.997 111.113 83.0886 110.878 83.1081C110.643 83.1277 110.407 83.0743 110.204 82.9554C110 82.8364 109.839 82.6578 109.743 82.4444C108.738 80.2064 107.97 77.8727 107.45 75.4803C107.157 74.1371 106.952 72.7773 106.834 71.4089C106.717 70.0974 106.676 68.7807 106.71 67.4651C106.774 65.0255 107.074 62.5984 107.605 60.2167C107.848 59.183 108.122 58.7167 108.363 58.8121C108.597 58.9067 108.828 59.5648 108.9 60.7702C108.914 64.2265 109.158 67.6789 109.633 71.1048C109.729 71.8071 109.864 72.5032 109.979 73.2063C110.125 73.9016 110.249 74.6049 110.425 75.2954C110.576 75.993 110.783 76.675 110.975 77.3607L111.306 78.3749C111.411 78.7145 111.553 79.0403 111.675 79.3728L111.735 79.3771Z" fill="black"/>
</svg>
