<svg width="102" height="52" viewBox="0 0 176 91" fill="none" xmlns="http://www.w3.org/2000/svg">
<path d="M46.3942 31.1235C47.0806 32.0603 47.7587 32.9985 48.39 33.9474C48.7358 34.4481 49.072 34.9534 49.4816 35.4403C51.6727 38.038 53.9251 40.6239 55.9946 43.2494C57.2539 44.8689 58.4809 46.4952 59.6754 48.1283L61.4526 50.5805L63.1767 53.0429C63.5005 53.5459 63.7459 54.0615 63.9105 54.5848C63.9965 54.7975 63.9833 55.0177 63.8722 55.2273C63.7611 55.4368 63.5552 55.6297 63.2715 55.79C62.5044 56.243 61.2857 56.1598 60.5711 55.5451C60.1251 55.1394 59.7791 54.7065 59.5411 54.2564C58.9608 53.2366 58.2987 52.2336 57.555 51.2474C56.8182 50.2598 56.0033 49.288 55.1103 48.3319C54.6184 47.8039 54.0446 47.2671 53.7877 46.7099C52.9629 44.9306 51.4205 43.2806 50.3233 41.5511C49.506 40.2658 48.4999 39.0109 47.6071 37.7374L45.2128 34.3315C44.4024 33.1988 43.6457 32.0545 42.8414 30.9197C42.5523 30.4731 42.3204 30.0172 42.1471 29.5548C42.0043 29.1155 41.9087 28.6724 41.8607 28.2276C41.8166 27.8342 42.2961 27.7566 42.8469 28.1055C43.6349 28.607 44.3542 29.1364 44.9996 29.6897C45.2652 29.9168 45.5065 30.1528 45.7286 30.394C45.9312 30.6394 46.1345 30.8857 46.3366 31.1305L46.3942 31.1235Z" fill="black"/>
<path d="M102.195 28.1021L101.923 29.3761L101.591 30.6482C101.476 31.0983 101.36 31.5506 101.319 32.0035C101.262 32.6078 101.219 33.2124 101.181 33.8171L101.046 35.6298L100.792 39.2541L100.458 43.7161L100.172 48.1796C100.118 48.6313 100.003 49.0805 99.8253 49.5236C99.767 49.7068 99.6267 49.8804 99.4156 50.0306C99.2044 50.1808 98.9284 50.3034 98.6093 50.3886C97.7389 50.6335 96.8236 50.3785 96.6044 49.77C96.4784 49.3729 96.4519 48.9691 96.5254 48.5685C96.7894 46.7463 96.8304 44.9172 96.6483 43.0923C96.5385 42.5877 96.5402 42.0783 96.6533 41.5739C97.1771 40.0201 97.0754 38.4419 97.4177 36.8824C97.6737 35.7243 97.77 34.5548 98.0155 33.3945C98.4687 31.3261 98.9607 29.2616 99.5984 27.2067C99.8243 26.4252 100.299 25.6685 101.002 24.967C101.305 24.6631 101.805 24.7126 101.934 25.0912C102.111 25.6341 102.218 26.1824 102.256 26.7326C102.271 27.1877 102.233 27.6427 102.144 28.0955L102.195 28.1021Z" fill="black"/>
<path d="M148.774 40.9589C147.859 41.5286 146.939 42.0964 146.013 42.6624C145.497 42.952 145.014 43.2571 144.568 43.5763C143.415 44.4392 142.299 45.3155 141.184 46.1914C140.066 47.0665 138.939 47.937 137.786 48.7975C136.37 49.8589 134.933 50.9121 133.501 51.967L129.17 55.1195C128.702 55.4331 128.162 55.716 127.562 55.9619C127.002 56.2093 126.205 56.2148 125.34 56.0874C124.08 55.902 123.226 55.3351 123.545 54.8098C123.77 54.4781 124.125 54.1742 124.588 53.9171C126.602 52.7186 128.336 51.4015 129.754 49.9932C130.151 49.6034 130.508 49.1764 131.133 48.8862C133.12 47.9561 134.411 46.7549 136.162 45.7354C137.457 44.9761 138.61 44.156 139.877 43.3842C141.006 42.6959 142.145 42.0123 143.295 41.3335L146.825 39.3323C147.741 38.8077 148.885 38.4037 150.164 38.1539C150.29 38.1247 150.43 38.1156 150.566 38.1279C150.702 38.1401 150.829 38.1731 150.928 38.2226C151.028 38.2721 151.097 38.3359 151.126 38.4058C151.155 38.4757 151.143 38.5485 151.092 38.6148C150.786 39.0738 150.427 39.5229 150.018 39.9599C149.635 40.3011 149.203 40.6272 148.727 40.9356L148.774 40.9589Z" fill="black"/>
<path d="M159.129 62.4587C158.781 62.543 158.439 62.6339 158.08 62.7074L157.002 62.926C156.617 62.9983 156.245 63.0871 155.889 63.1916C154.959 63.4878 154.048 63.8033 153.109 64.0905C152.176 64.3835 151.24 64.6737 150.287 64.9454C149.113 65.2808 147.929 65.6054 146.724 65.9093L143.112 66.8217C142.721 66.9034 142.304 66.9465 141.882 66.949C141.469 66.9639 141.008 66.7705 140.556 66.4782C139.898 66.0524 139.611 65.4905 139.981 65.2452C140.218 65.0995 140.539 64.9964 140.896 64.951C142.475 64.7076 143.945 64.3047 145.221 63.7656C145.58 63.6166 145.922 63.4285 146.382 63.3985C147.843 63.2951 148.981 62.8446 150.322 62.6133C151.322 62.4448 152.229 62.1738 153.217 61.9905C154.976 61.6597 156.714 61.3084 158.499 61.0067C159.234 60.876 160.03 60.8667 160.776 60.9801C160.867 60.9949 160.95 61.0197 161.021 61.053C161.091 61.0862 161.147 61.127 161.183 61.1725C161.22 61.218 161.237 61.2671 161.233 61.3164C161.23 61.3657 161.205 61.4139 161.161 61.4577C161.007 61.5704 160.844 61.6807 160.675 61.7872C160.513 61.8934 160.334 61.9923 160.14 62.0828C159.817 62.2158 159.472 62.3332 159.108 62.4335L159.129 62.4587Z" fill="black"/>
<path d="M19.0313 57.9771C19.8288 58.2144 20.6201 58.4555 21.4051 58.7004C21.8146 58.8355 22.2395 58.9576 22.6774 59.0662C23.8657 59.3289 25.0505 59.5989 26.2268 59.8808C27.4006 60.1652 28.5524 60.4725 29.6823 60.8029C31.0636 61.2168 32.4219 61.6524 33.7426 62.1172C35.0634 62.5817 36.3592 63.0646 37.6297 63.5659C38.0092 63.7306 38.3323 63.9271 38.5852 64.1473C38.8513 64.3536 38.7615 64.6581 38.4808 64.9909C38.071 65.4753 37.2034 65.8203 36.5621 65.7263C36.1666 65.6586 35.8116 65.5393 35.5315 65.3798C34.2145 64.6871 32.6442 64.1367 30.9119 63.7607C30.4336 63.6533 29.8999 63.5734 29.5547 63.3752C28.4513 62.7373 26.9258 62.4307 25.627 61.9439C25.1413 61.7642 24.6372 61.5983 24.1169 61.4469C23.603 61.2896 23.0797 61.1406 22.5687 60.98C20.7454 60.4087 18.9037 59.8431 17.0101 59.3212C16.2272 59.0887 15.6093 58.7323 15.2475 58.3046C15.0434 58.1072 15.2293 57.8948 15.7309 57.7937L16.2424 57.7214C16.3208 57.7081 16.4035 57.7029 16.4857 57.7061L16.7171 57.7084C17.0222 57.7127 17.3266 57.7265 17.6285 57.7498C17.8707 57.7696 18.1081 57.8028 18.3367 57.8486C18.5598 57.8995 18.7793 57.9554 19.0034 58.0042L19.0313 57.9771Z" fill="black"/>
</svg>
