<svg width="161" height="7" viewBox="0 0 161 7" fill="none" xmlns="http://www.w3.org/2000/svg">
<path d="M92.9782 1.74826C116.535 0.909366 131.854 0.359137 134.979 0.239486C136.692 0.173656 143.247 0.0811421 149.546 0.0331039C160.733 -0.0518527 161 -0.033164 161 0.835528C161 1.5094 160.703 1.72558 159.777 1.72602C157.345 1.72825 130.138 2.63118 112.739 3.28681C84.979 4.33298 64.27 4.82671 47.5763 4.83961C31.737 4.85207 22.0924 5.24527 9.19547 6.40442C3.88457 6.88169 1.47599 6.94084 0.855493 6.60857C-1.16968 5.52504 0.570377 4.39793 4.29023 4.38415C5.71314 4.37925 10.0797 4.07323 13.994 3.70449C18.752 3.25657 30.9257 2.89585 50.7223 2.61652C67.0087 2.38655 86.0238 1.99601 92.9782 1.74826Z" fill="black"/>
</svg>
