<svg width="49" height="56" viewBox="0 0 49 56" fill="none" xmlns="http://www.w3.org/2000/svg">
<path fill-rule="evenodd" clip-rule="evenodd" d="M24.5423 1L1.00039 14.6207V42.1983L24.5423 55.819L47.916 42.1983V14.6207L24.5423 1ZM44.1693 25.6358C41.7591 24.9632 36.4005 22.6426 34.2481 18.7414C31.5576 13.8648 27.1855 12.5196 22.9816 12.6877C18.7777 8.31568 14.7419 6.80228 14.9101 14.5375C13.5014 16.8131 11.7959 19.368 10.1367 21.8535C6.64658 27.082 3.36149 32.0033 3.47546 33.371C3.60999 34.9853 3.53151 38.8641 3.47546 40.6017L24.495 52.8771L28.6989 50.6911C27.4097 48.2248 25.6048 42.1824 28.6989 37.743C28.9626 37.5057 29.1726 37.289 29.3625 37.0931C30.3835 36.0394 30.8254 35.5834 35.9296 35.7252C40.3058 35.8467 40.6397 35.0895 40.9969 34.2794C41.1338 33.9689 41.2742 33.6506 41.647 33.371C42.9922 32.362 45.5146 26.0801 44.1693 25.6358Z" fill="black"/>
<path d="M1.00039 14.6207H0.870426V14.5457L0.935303 14.5082L1.00039 14.6207ZM24.5423 1L24.4772 0.887511L24.5425 0.84972L24.6077 0.887714L24.5423 1ZM1.00039 42.1983L0.935303 42.3108L0.870426 42.2733V42.1983H1.00039ZM24.5423 55.819L24.6077 55.9313L24.5425 55.9693L24.4772 55.9315L24.5423 55.819ZM47.916 42.1983H48.046V42.273L47.9814 42.3106L47.916 42.1983ZM47.916 14.6207L47.9814 14.5084L48.046 14.546V14.6207H47.916ZM34.2481 18.7414L34.3619 18.6786L34.2481 18.7414ZM44.1693 25.6358L44.2043 25.5105L44.2101 25.5124L44.1693 25.6358ZM22.9816 12.6877L22.9868 12.8176L22.9284 12.8199L22.8879 12.7778L22.9816 12.6877ZM14.9101 14.5375L15.04 14.5346L15.0409 14.5731L15.0206 14.6059L14.9101 14.5375ZM10.1367 21.8535L10.0286 21.7814L10.1367 21.8535ZM3.47546 33.371L3.60498 33.3602L3.47546 33.371ZM3.47546 40.6017L3.40992 40.7139L3.34307 40.6749L3.34557 40.5975L3.47546 40.6017ZM24.495 52.8771L24.555 52.9924L24.4914 53.0255L24.4295 52.9894L24.495 52.8771ZM28.6989 50.6911L28.8141 50.6309L28.8744 50.7463L28.7589 50.8064L28.6989 50.6911ZM28.6989 37.743L28.5923 37.6687L28.6009 37.6565L28.612 37.6465L28.6989 37.743ZM29.3625 37.0931L29.4558 37.1835L29.3625 37.0931ZM35.9296 35.7252L35.9333 35.5953L35.9296 35.7252ZM40.9969 34.2794L40.878 34.227L40.9969 34.2794ZM41.647 33.371L41.7249 33.475H41.7249L41.647 33.371ZM0.935303 14.5082L24.4772 0.887511L24.6074 1.11249L1.06547 14.7332L0.935303 14.5082ZM0.870426 42.1983V14.6207H1.13034V42.1983H0.870426ZM24.4772 55.9315L0.935303 42.3108L1.06547 42.0858L24.6074 55.7065L24.4772 55.9315ZM47.9814 42.3106L24.6077 55.9313L24.4768 55.7067L47.8506 42.086L47.9814 42.3106ZM48.046 14.6207V42.1983H47.7861V14.6207H48.046ZM24.6077 0.887714L47.9814 14.5084L47.8506 14.733L24.4768 1.11229L24.6077 0.887714ZM34.3619 18.6786C35.4224 20.6009 37.2784 22.1418 39.1791 23.288C41.0784 24.4334 43.0097 25.1772 44.2042 25.5106L44.1344 25.761C42.9187 25.4217 40.9656 24.6689 39.0449 23.5106C37.1256 22.3531 35.2261 20.7831 34.1343 18.8042L34.3619 18.6786ZM22.9764 12.5579C27.2141 12.3884 31.641 13.747 34.3619 18.6786L34.1343 18.8042C31.4742 13.9827 27.1569 12.6508 22.9868 12.8176L22.9764 12.5579ZM14.7802 14.5403C14.738 12.5993 14.9584 11.2192 15.3919 10.3142C15.6095 9.85997 15.8827 9.52146 16.2069 9.2938C16.5319 9.06559 16.9014 8.95362 17.3027 8.94248C18.0994 8.92035 19.0202 9.29512 19.9947 9.93596C20.9725 10.579 22.0204 11.5006 23.0753 12.5977L22.8879 12.7778C21.8408 11.6888 20.8078 10.7818 19.8519 10.1531C18.8925 9.52227 18.0267 9.18239 17.3099 9.2023C16.9545 9.21217 16.6356 9.3104 16.3563 9.50652C16.0762 9.7032 15.8292 10.0032 15.6264 10.4265C15.2191 11.2766 14.9981 12.6081 15.04 14.5346L14.7802 14.5403ZM10.0286 21.7814C11.6881 19.2954 13.3923 16.7424 14.7996 14.4691L15.0206 14.6059C13.6105 16.8838 11.9037 19.4407 10.2448 21.9257L10.0286 21.7814ZM3.34595 33.3818C3.32962 33.1858 3.37432 32.9403 3.46172 32.6593C3.5499 32.3757 3.68519 32.0449 3.85984 31.6742C4.20917 30.9328 4.72089 30.0215 5.34336 28.9928C6.58848 26.9349 8.28412 24.3948 10.0286 21.7814L10.2448 21.9257C8.49919 24.5408 6.80721 27.0755 5.56574 29.1273C4.94491 30.1534 4.43859 31.0557 4.09497 31.785C3.92313 32.1498 3.79321 32.4687 3.70991 32.7365C3.62584 33.0068 3.59281 33.2142 3.60498 33.3602L3.34595 33.3818ZM3.34557 40.5975C3.40169 38.8577 3.47972 34.9871 3.34595 33.3818L3.60498 33.3602C3.74025 34.9835 3.66133 38.8705 3.60536 40.6059L3.34557 40.5975ZM24.4295 52.9894L3.40992 40.7139L3.541 40.4895L24.5605 52.7649L24.4295 52.9894ZM28.7589 50.8064L24.555 52.9924L24.4351 52.7618L28.639 50.5758L28.7589 50.8064ZM28.8055 37.8174C27.2819 40.0035 26.9607 42.5897 27.1846 44.9447C27.4084 47.3 28.1764 49.411 28.8141 50.6309L28.5837 50.7513C27.9322 49.5049 27.1532 47.3615 26.9258 44.9693C26.6984 42.5766 27.0219 39.922 28.5923 37.6687L28.8055 37.8174ZM29.4558 37.1835C29.266 37.3794 29.0532 37.599 28.7859 37.8396L28.612 37.6465C28.872 37.4124 29.0792 37.1987 29.2692 37.0026L29.4558 37.1835ZM35.926 35.8551C33.3727 35.7842 32.0036 35.8638 31.1476 36.0866C30.3078 36.3051 29.9631 36.66 29.4558 37.1835L29.2692 37.0026C29.783 36.4724 30.1697 36.0725 31.0821 35.835C31.9784 35.6018 33.3823 35.5244 35.9333 35.5953L35.926 35.8551ZM41.1158 34.3318C41.0273 34.5325 40.9332 34.7478 40.7704 34.9465C40.6053 35.1481 40.3748 35.3271 40.0195 35.472C39.3172 35.7584 38.1158 35.9159 35.926 35.8551L35.9333 35.5953C38.1197 35.656 39.2733 35.4956 39.9213 35.2313C40.2411 35.1009 40.4346 34.9463 40.5693 34.7818C40.7063 34.6145 40.7879 34.4314 40.878 34.227L41.1158 34.3318ZM41.7249 33.475C41.3815 33.7325 41.2522 34.0225 41.1158 34.3318L40.878 34.227C41.0154 33.9153 41.1669 33.5686 41.569 33.267L41.7249 33.475ZM44.2101 25.5124C44.4358 25.587 44.5647 25.7816 44.628 26.0211C44.6909 26.2594 44.696 26.5631 44.6612 26.9032C44.5913 27.5855 44.3562 28.4552 44.0394 29.3357C43.722 30.2175 43.3199 31.1175 42.9117 31.8617C42.7076 32.2338 42.5011 32.5686 42.302 32.8434C42.104 33.1166 41.9085 33.3373 41.7249 33.475L41.569 33.267C41.7218 33.1524 41.8993 32.9561 42.0915 32.6909C42.2825 32.4273 42.4833 32.1024 42.6838 31.7367C43.0849 31.0054 43.4816 30.118 43.7948 29.2476C44.1085 28.3759 44.3358 27.5288 44.4026 26.8767C44.4361 26.5497 44.428 26.2818 44.3767 26.0876C44.3257 25.8946 44.2391 25.7957 44.1285 25.7592L44.2101 25.5124Z" fill="black"/>
</svg>
