<svg width="214" height="213" viewBox="0 0 214 213" fill="none" xmlns="http://www.w3.org/2000/svg">
<g clip-path="url(#clip0_21_3744)">
<path d="M60.6354 124.597C63.6327 121.039 66.7693 117.585 70.0984 114.306C73.4292 111.019 76.9567 107.933 80.6619 105.068C84.6089 102.016 88.776 99.2559 93.1301 96.8085C98.9539 93.4945 105.216 90.9992 111.738 89.3935C115.026 88.5962 118.381 88.09 121.763 87.881C123.509 87.7583 125.264 87.7838 127.007 87.9574C128.867 88.1368 130.687 88.6203 132.392 89.3883C133.327 89.8158 134.193 90.3798 134.962 91.0616C135.825 91.8217 136.495 92.774 136.917 93.8397C137.345 94.9511 137.465 96.1544 137.265 97.3239C137.079 98.4024 136.676 99.4311 136.078 100.348C135.531 101.199 134.865 101.967 134.1 102.63C133.383 103.242 132.611 103.786 131.792 104.256C130.285 105.138 128.706 105.895 127.071 106.517C123.841 107.751 120.456 108.545 117.007 108.879C113.545 109.215 110.049 109.053 106.627 108.397C102.364 107.592 98.3061 105.93 94.7035 103.512C94.2182 103.175 93.7544 102.809 93.3147 102.414C92.8601 102.007 92.4401 101.563 92.0589 101.088C91.2638 100.133 90.6411 99.0498 90.2187 97.8855C89.795 96.7017 89.5995 95.4505 89.6425 94.1976C89.6859 93.0032 89.9067 91.8227 90.2976 90.6946C91.0483 88.6053 92.1445 86.657 93.5412 84.9295C94.1953 84.0884 94.8936 83.2824 95.6334 82.5148C96.0007 82.1337 96.3727 81.7584 96.756 81.3962C97.1376 81.0297 97.5128 80.7018 97.8919 80.353C100.912 77.601 104.112 75.0501 107.471 72.7167C120.961 63.4253 136.593 57.6426 152.948 55.8931C153.559 55.8158 154.175 55.7714 154.79 55.7203C155.405 55.6739 156.02 55.613 156.637 55.5821C157.871 55.5239 159.104 55.4499 160.339 55.4459C162.806 55.3887 165.266 55.4786 167.691 55.6198C169.625 55.7389 171.551 55.9764 173.457 56.3309C174.228 56.4848 174.91 56.6326 175.51 56.7857C176.109 56.9523 176.627 57.1137 177.073 57.2696C178.371 57.7237 178.317 57.9901 177.144 58.0618C176.851 58.0796 176.488 58.0851 176.059 58.0782C175.63 58.067 175.134 58.0541 174.571 58.0396C174.009 58.0235 173.385 57.9959 172.699 57.957C172.012 57.9318 171.264 57.9075 170.459 57.866C166.211 57.682 161.958 57.7294 157.718 58.0082C148.031 58.643 138.514 60.7893 129.516 64.3685C120.543 67.9012 112.212 72.8565 104.846 79.0424C104.346 79.4724 103.844 79.9043 103.339 80.3381C102.848 80.7862 102.355 81.2354 101.861 81.6859C101.361 82.1284 100.894 82.608 100.409 83.0681C99.9267 83.5336 99.4399 83.9938 99.0024 84.4548C97.2589 86.2109 95.7837 88.2116 94.6231 90.3939C93.7882 92.0334 93.3545 93.7737 93.5703 95.3655C93.6863 96.1661 93.9585 96.9374 94.3717 97.636C94.5881 98.0002 94.8352 98.3457 95.1102 98.6686C95.3795 99.0009 95.6795 99.3073 96.0064 99.5839C96.3478 99.8761 96.7076 100.147 97.0835 100.393L98.3333 101.166C98.7651 101.403 99.1946 101.645 99.63 101.877C100.077 102.088 100.515 102.316 100.967 102.515C102.783 103.317 104.677 103.931 106.618 104.346C110.529 105.175 114.556 105.28 118.496 104.656C120.47 104.343 122.414 103.869 124.307 103.24C126.181 102.627 127.986 101.828 129.698 100.857L130.16 100.58L130.391 100.44L130.596 100.306C130.865 100.129 131.123 99.9378 131.371 99.7325C131.846 99.3401 132.268 98.8874 132.625 98.3857C132.949 97.9347 133.186 97.4278 133.325 96.8903C133.386 96.6522 133.417 96.4069 133.415 96.1606C133.419 95.9289 133.389 95.6976 133.326 95.4741C133.268 95.2465 133.178 95.0282 133.057 94.826C132.931 94.6047 132.78 94.3987 132.606 94.212C132.199 93.7881 131.729 93.4299 131.211 93.1505C130.63 92.8346 130.017 92.5782 129.384 92.3854C128.721 92.1803 128.044 92.024 127.359 91.9177C125.917 91.7084 124.46 91.6308 123.006 91.686C122.26 91.706 121.507 91.7484 120.747 91.8064C119.993 91.8662 119.24 91.9403 118.488 92.0287C115.472 92.4031 112.491 93.0081 109.571 93.8383C104.331 95.3364 99.2879 97.434 94.5415 100.089C89.7662 102.761 85.2432 105.853 81.0264 109.328C78.9077 111.063 76.8513 112.874 74.8573 114.761C73.8644 115.706 72.8799 116.66 71.9263 117.648L70.4893 119.124L69.0823 120.629C68.1358 121.625 67.2399 122.67 66.3183 123.69C65.4269 124.738 64.5132 125.767 63.6439 126.836C61.8738 128.945 60.1766 131.119 58.4944 133.305C53.1586 140.309 48.2583 147.051 43.3858 152.727C41.148 155.338 40.464 154.619 42.4324 151.168C45.2767 146.32 48.3976 141.308 51.7251 136.441C54.4537 132.436 57.5286 128.497 60.6603 124.674C60.6511 124.649 60.6428 124.625 60.6354 124.597Z" fill="black"/>
<path d="M68.9234 138.397C66.2231 139.469 63.6119 140.748 61.113 142.223C60.46 142.633 59.8002 143.038 59.1504 143.459C58.5143 143.903 57.8833 144.356 57.2678 144.825C54.6398 146.902 52.1536 149.2 49.6873 151.556L45.9966 155.123C44.7656 156.316 43.5397 157.527 42.2739 158.693L42.2553 158.71C41.8198 159.111 41.2408 159.323 40.6456 159.298C40.0505 159.274 39.488 159.016 39.0819 158.58C38.8272 158.304 38.645 157.97 38.5519 157.608C38.4587 157.245 38.4574 156.866 38.5481 156.505L39.7509 151.817C41.019 146.757 42.291 141.693 43.599 136.628C44.9089 131.563 46.2528 126.497 47.7378 121.446C48.2077 119.924 48.761 118.428 49.3952 116.967C49.9743 115.57 50.7304 114.788 51.476 114.406C52.5668 113.854 53.153 114.985 52.744 117.043C52.4638 118.398 52.1027 119.734 51.6626 121.046C49.7536 127.093 48.2389 133.259 47.1278 139.505C46.8129 141.232 46.5489 143.046 46.022 144.673C44.6572 148.89 43.7219 153.242 42.676 157.56L39.3466 155.604C40.0921 154.892 40.8478 154.192 41.6261 153.517C44.6855 150.842 47.6222 147.979 50.7971 145.33C53.6326 142.929 56.6523 140.751 59.829 138.816C63.0268 136.912 66.3874 135.29 69.8726 133.968C70.5642 133.709 71.2525 133.47 71.9354 133.257C72.6252 133.066 73.3097 132.904 73.9889 132.771C75.3018 132.505 76.6435 132.4 77.984 132.46C78.5822 132.489 78.9263 132.715 78.9832 133.03C79.0374 133.338 78.8156 133.763 78.2535 134.106C77.4419 134.541 76.5936 134.934 75.7493 135.343C74.9078 135.759 74.0505 136.15 73.1924 136.526C72.4996 136.858 71.7814 137.149 71.0547 137.43L70.509 137.639L69.9737 137.867C69.6178 138.022 69.2623 138.176 68.9073 138.329L68.9234 138.397Z" fill="black"/>
</g>
<defs>
<clipPath id="clip0_21_3744">
<rect width="163.421" height="162" fill="white" transform="translate(62.3311) rotate(22.6288)"/>
</clipPath>
</defs>
</svg>
