<svg width="477" height="202" viewBox="0 0 477 202" fill="none" xmlns="http://www.w3.org/2000/svg">
<path d="M66.4833 124.096C50.7834 125.786 32.6592 128.554 19.8629 115.741C8.68824 104.554 6.03592 88.8816 5.29839 72.7923C4.37008 52.5808 18.6298 34.1075 33.0222 24.4034C55.8042 9.05186 86.6875 14.4132 111.945 13.4707C162.858 11.575 213.692 8.9678 264.647 9.57168C292.852 9.90512 321.053 10.9711 349.237 12.1789C373.043 13.2002 397.014 13.1635 420.485 18.3017C435.466 21.581 451.85 26.9843 462.589 39.9099C475.174 55.054 466.761 80.5403 455.586 93.4895C442.613 108.515 421.725 111.577 404.185 113.887C384.713 116.455 365.014 116.565 345.436 116.844C295.707 117.555 246.343 123.489 196.501 122.184C173.763 121.591 151.034 121.115 128.331 120.59C116.998 120.325 104.93 118.647 93.6277 120.094C92.2597 120.267 90.7009 121.089 90.4333 122.838C86.6037 147.97 81.0827 172.479 75.6059 197.196H82.1762C77.8139 173.348 72.8791 149.618 69.1124 125.637C68.4958 121.706 63.3215 123.415 63.8543 127.272C67.1813 151.378 71.6786 175.257 75.6059 199.241C76.2364 203.106 81.334 202.728 82.1762 199.241C88.1067 174.69 93.0973 149.923 96.8222 124.82C95.7566 125.736 94.6933 126.653 93.6277 127.564C107.317 125.744 122.745 127.514 136.36 128.995C165.35 132.148 194.93 130.034 224.02 129.656C256.985 129.228 289.653 126.317 322.526 124.077C344.023 122.615 365.593 123.271 387.1 121.767C422.034 119.325 472.417 112.446 475.902 62.3269C478.794 20.7356 431.017 10.383 403.589 6.53132C376.838 2.77416 349.479 2.88442 322.57 1.82107C296.614 0.791856 270.647 0.0934533 244.675 0.00943576C190.817 -0.16385 136.784 2.05734 83.0464 6.03767C63.5913 7.48172 43.7454 10.3226 28.0153 24.553C16.6894 34.8006 8.26945 49.0652 4.0932 64.7476C-0.0132483 80.1622 -2.17 93.2453 3.18118 108.883C8.05075 123.116 18.6298 132.508 31.5959 136.194C44.0944 139.749 56.9326 135.918 67.5396 128.491C69.1822 127.341 68.6657 123.859 66.4833 124.096Z" fill="#333333"/>
</svg>
