<svg width="452" height="197" viewBox="0 0 452 197" fill="none" xmlns="http://www.w3.org/2000/svg">
<path d="M45.7702 92.2029C29.8957 92.8392 15.1827 101.124 4.40794 109.725C-0.164562 113.376 4.76046 119.518 10.9033 117.997C20.0977 115.723 32.9099 113.284 41.6267 117.947C40.4607 116.44 39.2947 114.933 38.1262 113.426C38.9714 129.799 41.9268 142.328 56.2041 154.85C68.5133 165.647 86.2177 172.159 103.473 176.712C145.568 187.821 191.085 189.198 235.3 189.278C255.027 189.312 274.757 189.065 294.484 188.813C326.23 188.406 358.147 188.99 389.243 182.793C413.603 177.941 432.261 168.291 441.56 149.648C450.761 131.201 449.227 109.779 448.887 90.4639C448.329 58.6833 433.825 29.3007 396.079 14.7372C360.844 1.1371 317.851 2.64639 279.548 4.83584C258.618 6.03123 237.759 7.93767 216.838 9.19353C184.823 11.1133 152.708 9.94515 121.023 14.9663C94.8435 19.1132 70.7847 28.8516 54.7113 45.8791C41.6688 59.695 33.3362 78.5989 43.0484 94.7701C44.8071 97.6976 50.2981 94.9847 48.5551 92.0822C34.048 67.9228 63.6733 40.1273 89.3131 29.042C121.322 15.2054 161.177 15.9038 196.467 15.3528C244.118 14.6107 291.577 8.63272 339.249 11.3525C384.28 13.919 423.457 28.81 436.111 64.7461C443.024 84.3774 442.278 107.522 440.074 127.764C438.927 138.275 435.731 148.762 428.834 157.951C420.159 169.509 402.921 174.395 387.36 177.855C345.944 187.066 299.569 183.77 256.981 184.151C220.891 184.475 184.638 183.878 149.015 179.375C117.082 175.339 80.1225 167.365 61.3929 145.079C57.2403 140.137 54.8226 134.577 53.3012 128.803C51.9492 123.678 54.827 113.168 49.6814 109.352C39.357 101.7 18.7902 105.322 7.22069 108.356C9.38579 111.113 11.5534 113.869 13.7186 116.628C21.2359 108.665 34.3318 98.181 46.2477 94.5956C47.851 94.1136 47.6094 92.1281 45.7702 92.2029Z" fill="black"/>
<path d="M67.187 107.486C63.7366 126.783 72.2048 142.117 92.9661 152.747C114.062 163.549 145.566 167.703 170.426 165.253C172.227 165.076 172.837 162.894 170.814 162.613C148.823 159.561 126.772 159.085 105.981 152.065C82.1481 144.019 69.3981 128.167 70.3646 107.739C70.431 106.329 67.4385 106.069 67.187 107.486Z" fill="black"/>
<path d="M196.145 161.038L195.908 160.972C196.628 161.506 197.348 162.037 198.066 162.571C197.65 160.61 195.416 159.175 192.845 159.241C189.994 159.315 187.659 161.237 187.716 163.469C187.774 165.7 190.205 167.499 193.056 167.426C195.627 167.36 197.784 165.812 198.098 163.832C197.409 164.4 196.717 164.97 196.026 165.538L196.259 165.461C199.018 164.538 198.948 161.818 196.145 161.038Z" fill="black"/>
</svg>
