<svg width="251" height="243" viewBox="0 0 251 243" fill="none" xmlns="http://www.w3.org/2000/svg">
<path d="M54.8493 30.5244L58.1257 31.7254L57.5651 31.4749C59.9963 32.6762 62.4895 33.4235 64.8818 33.6681C67.4162 33.922 69.7398 33.5134 71.6264 32.482C72.0861 32.2335 72.5211 31.9537 72.9293 31.6438L73.8578 30.8595L75.3203 29.6552C76.3417 28.8589 77.3765 28.0264 78.4531 27.2666C80.5792 25.704 82.8026 24.2467 85.1004 22.8799C87.3897 21.502 89.76 20.2251 92.2115 19.0489C101.979 14.2801 112.879 11.1311 124.62 9.68631C137.571 8.15279 151.723 8.89817 165.972 13.1081C173.25 15.2286 180.538 18.3276 187.607 22.3073C194.61 26.2712 201.272 31.1704 207.327 36.8076C213.392 42.4853 218.824 48.768 223.44 55.4447C225.772 58.8099 227.939 62.2417 229.929 65.7228C231.901 69.2257 233.714 72.7784 235.4 76.3597L235.161 75.7745L236.506 80.0727L237.181 82.2213C237.383 82.936 237.547 83.6484 237.732 84.3619L238.818 88.6411C239.126 90.0613 239.374 91.4737 239.656 92.8903L240.07 95.0138C240.206 95.7213 240.268 96.4163 240.372 97.1183L240.938 101.32C241.088 102.712 241.157 104.086 241.273 105.47L241.431 107.543C241.491 108.236 241.466 108.906 241.488 109.589L241.558 113.667C241.551 115.018 241.458 116.34 241.414 117.678C241.375 120.373 240.998 122.947 240.767 125.572C240.098 130.755 239.079 135.781 237.714 140.621C237.095 143.079 236.25 145.419 235.46 147.786C235.091 148.986 234.579 150.103 234.138 151.261C233.67 152.403 233.255 153.577 232.743 154.693C231.699 156.909 230.76 159.194 229.585 161.326L227.895 164.571L226.061 167.717C221.084 176.077 215.268 183.789 208.667 190.782C202.081 197.862 194.82 204.298 186.934 210.046C185.967 210.787 184.963 211.486 183.951 212.174L180.929 214.259L177.824 216.245L176.272 217.238L174.681 218.183L171.495 220.069L168.232 221.855C166.081 223.078 163.801 224.127 161.587 225.266L158.14 226.847L156.419 227.633L154.735 228.367L153.893 228.735L153.033 229.054L151.314 229.689C150.135 230.06 148.965 230.449 147.752 230.764C142.902 232.057 137.725 232.753 132.309 232.84C126.88 232.931 121.251 232.437 115.512 231.364C109.767 230.324 103.936 228.694 98.1178 226.5C95.2089 225.415 92.3083 224.195 89.4273 222.845C87.9951 222.133 86.5479 221.481 85.1294 220.706L82.9919 219.584L80.8758 218.386C75.2339 215.173 69.7684 211.452 64.578 207.293C63.2643 206.278 62.0228 205.165 60.739 204.107C59.5064 202.99 58.236 201.906 57.0374 200.754C55.8346 199.606 54.6211 198.473 53.4649 197.242C52.3021 196.03 51.1043 194.843 49.9663 193.61C45.4106 188.676 41.2139 183.477 37.4314 178.082L36.0319 176.053C35.5587 175.379 35.0958 174.701 34.6776 174.007L32.0903 169.87L29.7062 165.671C28.9387 164.265 28.2255 162.846 27.4913 161.431C21.7905 149.985 18.0881 138.312 16.5757 127.016C15.7992 121.335 15.4996 115.765 15.6795 110.36C16.1698 97.2154 19.1389 85.0755 24.4581 74.4654L25.3945 72.6237C25.6915 72.0167 25.9927 71.4313 26.3216 70.8846L28.1244 67.6877C29.3732 65.7372 30.4187 63.901 31.5129 62.3698L32.9961 60.1338L34.3822 58.1987L35.5759 56.4614L36.6537 54.9795C38.5606 52.2627 38.1395 51.7973 35.6521 53.3551C35.0351 53.7486 34.2712 54.2521 33.4186 54.9094C32.5945 55.5925 31.6562 56.4056 30.6098 57.3457C29.5694 58.2911 28.526 59.4583 27.3358 60.7072C26.7411 61.3322 26.2028 62.0579 25.6012 62.7807C25.0218 63.5218 24.3701 64.2548 23.7938 65.0971C17.4286 73.8304 13.0598 84.1202 10.8631 95.5523C8.27265 108.65 8.74871 123.107 12.2633 138.076C14.0628 145.584 16.7166 153.167 20.1731 160.676C23.6482 168.206 27.962 175.6 33.0177 182.694C38.0648 189.789 43.7622 196.56 50.0012 202.878C53.1597 206.046 56.4562 209.08 59.872 211.965C63.3127 214.818 66.8626 217.515 70.5021 220.041C89.4019 232.939 110.1 240.717 129.567 242.235C133.823 242.545 137.985 242.542 142.021 242.226C146.044 241.916 149.919 241.269 153.61 240.291C157.188 239.311 160.586 238.03 163.776 236.459C168.66 234.195 173.446 231.652 178.097 229.006L181.53 226.943L183.246 225.91L184.919 224.826L188.264 222.657L191.527 220.39C192.626 219.648 193.689 218.864 194.742 218.068L197.913 215.697C199.951 214.032 202.069 212.452 204.031 210.705L207.019 208.132L209.911 205.458L211.355 204.12L212.749 202.73L215.537 199.951L218.214 197.064L219.55 195.617L220.829 194.118L223.382 191.115L225.818 188.005C227.478 185.963 228.935 183.746 230.486 181.609C231.229 180.514 231.93 179.384 232.654 178.273C233.375 177.159 234.1 176.049 234.749 174.878L236.752 171.411C237.401 170.242 237.992 169.028 238.613 167.838C239.891 165.482 240.926 162.952 242.055 160.492C242.589 159.24 243.058 157.944 243.56 156.672C244.059 155.397 244.557 154.122 244.962 152.788L246.245 148.83C246.633 147.488 246.972 146.117 247.335 144.76C250.035 134.507 251.192 123.47 250.778 111.91C250.783 110.479 250.595 108.987 250.494 107.522L250.313 105.316C250.251 104.58 250.208 103.849 250.085 103.097C249.645 100.106 249.335 97.1394 248.654 94.0993C248.34 92.5854 248.082 91.0791 247.72 89.5585L246.54 84.9836C246.335 84.2205 246.162 83.4597 245.93 82.6947L245.201 80.3972L243.737 75.8017C243.691 75.6589 243.635 75.5159 243.569 75.374L243.523 75.2784C240.189 68.1216 236.184 61.0724 231.573 54.2424C226.902 47.3332 221.464 40.772 215.406 34.7376C209.069 28.4573 202.058 22.8921 194.63 18.2461C187.24 13.6385 179.551 9.93113 171.804 7.24118C164.145 4.59204 156.501 2.76359 149.026 1.79246C141.623 0.834909 134.39 0.560641 127.419 0.973155C113.588 1.84348 100.725 4.89281 89.2496 10.0212C83.515 12.5457 78.1258 15.548 73.1217 19.0064C71.8812 19.8827 70.6472 20.7662 69.4544 21.6965C68.851 22.1429 68.2524 22.6416 67.6535 23.1263L66.7559 23.8567C66.4888 24.07 66.2943 24.2756 66.0763 24.407C65.263 24.9938 64.2024 25.2703 63.0161 25.2049C61.7349 25.11 60.3874 24.72 59.0768 24.0645L59.0131 24.0335C58.9235 23.9904 58.8302 23.9497 58.7416 23.9145C48.7967 20.0217 38.8222 17.7751 29.3002 17.2832C19.1772 16.7073 9.78688 18.2449 1.70565 21.8018L1.60147 21.8484C1.12872 22.0602 0.815154 22.4677 0.71704 22.9978C0.618926 23.5279 0.742717 24.1459 1.06615 24.7408C1.38961 25.3358 1.89155 25.8687 2.48188 26.2439C3.07222 26.6192 3.71232 26.8122 4.28726 26.7884C5.96136 26.7609 7.69897 26.9203 9.47061 27.2637C11.3178 27.6003 13.181 28.0394 15.0511 28.5789C16.9223 29.1087 18.7952 29.7089 20.6497 30.3952C22.4911 31.0607 24.3285 31.8115 26.1547 32.6447C29.7034 34.1711 33.1602 36.2332 36.3689 38.7379C37.8936 39.9453 39.2031 41.4206 40.1775 43.0286C41.098 44.6794 41.4821 46.4022 41.2643 47.9031C40.9339 49.5837 40.3829 51.1503 39.622 52.5729C39.1645 53.5286 39.1509 54.1597 39.5583 54.3441C39.7691 54.443 40.0665 54.4111 40.5147 54.2998C40.7688 54.2214 41.0132 54.1275 41.2469 54.0185L41.6763 53.8091L42.1166 53.4918C42.4227 53.26 42.7538 52.9889 43.1077 52.6757C43.4278 52.3108 43.7586 51.8821 44.106 51.4056C44.276 51.1317 44.4251 50.8421 44.5527 50.5383C44.7147 50.2172 44.8495 49.8777 44.9562 49.5218C45.0487 49.1242 45.1407 48.7067 45.2126 48.2641C45.2633 47.7793 45.27 47.2768 45.2326 46.7615C45.2077 46.1451 45.1098 45.5086 44.9408 44.8637C44.794 44.2179 44.5786 43.5651 44.2981 42.9163C43.777 41.6715 43.078 40.4478 42.226 39.289C40.6997 37.2503 38.8906 35.3769 36.8825 33.7556C35.0767 32.2748 33.183 30.9263 31.2278 29.7286C29.3515 28.5607 27.44 27.4898 25.5046 26.5224C21.6727 24.5992 17.784 22.9863 13.889 21.7046C11.8923 21.0528 9.89794 20.5002 7.91463 20.0494C5.73547 19.5401 3.58971 19.2638 1.51704 19.2258L6.55864 28.9643C9.15468 28.0289 11.8665 27.2771 14.6795 26.7128C17.6879 26.131 20.7994 25.7544 23.9968 25.585C27.2295 25.4328 30.5431 25.4942 33.9181 25.7687C37.3127 26.0741 40.7617 26.5978 44.244 27.3367C47.7228 28.1166 51.2255 29.1176 54.729 30.3331C54.7664 30.3964 54.8023 30.4558 54.8493 30.5244Z" fill="black"/>
</svg>
